<svg width="140" height="57" fill="none" xmlns="http://www.w3.org/2000/svg"><g clip-path="url(#clip0_595_61)"><path d="M49.077 41.33c2.412 5.981-3.863 11.765-9.628 8.876L9.529 35.214c-4.923-2.467-5.201-9.39-.492-12.244L38.63 5.03c5.691-3.45 12.532 2.241 10.175 8.465l-4.336 11.446a7 7 0 00.054 5.097l4.554 11.292z" fill="url(#paint0_linear_595_61)"/><path d="M26.08 28.758h-2.173v4.335h2.287c.97 0 1.685-.185 2.149-.556.463-.37.695-.94.695-1.706 0-1.382-.986-2.073-2.957-2.073zm-2.173-6.497v3.691h2.047c.96 0 1.652-.148 2.073-.442.43-.295.645-.771.645-1.429 0-.657-.232-1.125-.696-1.402-.463-.279-1.205-.418-2.224-.418h-1.845zM20.38 36V19.367h5.17c2.35 0 4.061.337 5.131 1.011 1.07.666 1.605 1.732 1.605 3.198 0 .986-.232 1.799-.695 2.44a2.815 2.815 0 01-1.87 1.162v.114c1.036.227 1.79.661 2.262 1.301.48.64.72 1.5.72 2.579 0 1.525-.552 2.713-1.655 3.564-1.096.843-2.579 1.264-4.45 1.264H20.38zm22.091-13.953c-1.398 0-2.456.471-3.172 1.415-.708.944-1.062 2.343-1.062 4.196 0 3.741 1.403 5.612 4.209 5.612 2.814 0 4.221-1.87 4.221-5.612 0-3.74-1.398-5.611-4.196-5.611zm-5.89-.746c1.382-1.458 3.35-2.187 5.903-2.187 2.553 0 4.504.738 5.852 2.212 1.356 1.475 2.035 3.59 2.035 6.345s-.683 4.87-2.048 6.345c-1.365 1.474-3.324 2.212-5.877 2.212-2.545 0-4.5-.738-5.864-2.212-1.365-1.475-2.048-3.598-2.048-6.37 0-2.773.683-4.887 2.047-6.345zm21.51 11.792c3.395 0 5.093-1.824 5.093-5.473 0-3.572-1.576-5.359-4.727-5.359h-1.87v10.832h1.503zm.189-13.726c2.705 0 4.807.716 6.307 2.149 1.508 1.424 2.262 3.467 2.262 6.13 0 2.654-.78 4.71-2.338 6.167C62.952 35.271 60.702 36 57.76 36h-4.7V19.367h5.22zM73.073 36h-3.527V19.367h3.527V36zm10.49-13.928c-1.322 0-2.35.497-3.083 1.491-.725 1.003-1.087 2.393-1.087 4.171 0 3.707 1.39 5.561 4.17 5.561 1.18 0 2.596-.29 4.247-.872v2.958c-1.356.564-2.881.846-4.575.846-2.418 0-4.268-.733-5.548-2.199-1.281-1.474-1.922-3.58-1.922-6.32-.025-2.594.674-4.68 2.099-6.255 1.432-1.585 3.332-2.36 5.7-2.326 1.618 0 3.244.392 4.878 1.175l-1.137 2.87c-1.542-.734-2.79-1.1-3.741-1.1zm20.667-2.705V36h-3.514v-7.179h-6.585V36h-3.526V19.367h3.526v6.522h6.585v-6.522h3.514zm13.67 0h3.147L114.854 36h-3.147l6.193-16.633zm3.511 14.32V30.97l7.785-3.198-7.785-3.602v-2.73l11.299 5.637v1.63l-11.299 4.98z" fill="#F0F0F0"/></g><defs><linearGradient id="paint0_linear_595_61" x1="57.227" y1="11.033" x2="3.16" y2="45.353" gradientUnits="userSpaceOnUse"><stop stop-color="#3D0066"/><stop offset=".5" stop-color="#7A24AD"/><stop offset="1" stop-color="#4A19D3"/></linearGradient><clipPath id="clip0_595_61"><path fill="#fff" d="M0 0h140v57H0z"/></clipPath></defs></svg>