<svg width="90" height="90" viewBox="0 0 90 90" fill="none" xmlns="http://www.w3.org/2000/svg">
<path d="M70.5934 3.78773C72.891 5.75645 73.7353 7.78216 74.0997 10.8002C74.1911 14.459 73.4172 17.7876 72.0559 21.1877C71.6401 22.3303 71.6401 22.3302 71.9997 23.4002C72.4859 24.0098 72.9778 24.5856 73.4997 25.1627C74.738 26.5757 75.8436 28.0232 76.8559 29.6065C77.0297 29.8764 77.0297 29.8764 77.2069 30.1518C77.9997 31.418 77.9997 31.418 77.9997 32.1002C78.3048 31.9651 78.3048 31.9651 78.6161 31.8272C80.5755 31.0266 82.2341 30.5184 84.2997 31.2002C85.6901 31.9698 86.9139 32.8951 87.6184 34.3502C88.2451 36.69 87.7708 38.3893 86.6997 40.5002C85.7309 42.0198 84.3833 43.2786 82.5934 43.6819C82.3645 43.7209 82.1355 43.76 81.8997 43.8002C81.9478 44.378 81.9478 44.378 81.9969 44.9674C82.71 54.8155 79.7274 63.7294 73.4247 71.3123C72.766 72.0592 72.0899 72.7824 71.3997 73.5002C71.0052 73.9179 71.0052 73.9179 70.6028 74.344C68.9105 76.1087 67.1779 77.6097 65.0997 78.9002C64.6646 79.1752 64.6646 79.1752 64.2208 79.4557C57.6527 83.4091 50.8026 85.8621 43.1059 85.8565C42.5914 85.8561 42.5914 85.8561 42.0665 85.8558C39.1108 85.8347 36.2247 85.6127 33.2997 85.2002C32.8959 85.1509 32.8959 85.1509 32.4841 85.1006C28.4343 84.4696 24.4065 82.6038 20.9997 80.4002C20.4921 80.0951 20.4921 80.0951 19.9743 79.7838C17.2406 78.124 14.0471 76.1281 12.5997 73.2002C12.3027 73.1012 12.0057 73.0022 11.6997 72.9002C11.1455 72.2046 10.64 71.5166 10.1434 70.7815C9.92435 70.458 9.92435 70.458 9.70083 70.128C4.4968 62.2822 2.24696 53.172 3.93836 43.8001C4.17776 42.6844 4.46703 41.5916 4.79968 40.5002C4.89134 40.1954 4.89134 40.1954 4.98484 39.8844C6.1007 36.313 7.8128 32.5569 10.1434 29.6135C10.6631 28.8648 10.4806 28.2379 10.338 27.3741C10.2461 26.9266 10.1477 26.4804 10.0427 26.0358C8.89189 21.0241 9.68934 16.3976 12.2997 12.0002C13.4807 10.3874 14.9093 8.95462 16.9368 8.55492C20.3207 8.44834 22.7411 9.73962 25.1938 11.9311C26.2225 12.9046 26.8226 13.6454 27.2997 15.0002C27.4679 14.9429 27.636 14.8856 27.8093 14.8265C31.2691 13.6655 34.6945 12.7226 38.3059 12.169C38.6205 12.12 38.935 12.0709 39.2591 12.0204C42.2747 11.5918 45.24 11.5842 48.2622 11.944C48.4888 11.9698 48.7153 11.9957 48.9488 12.0224C51.0643 12.2792 53.1277 12.7006 55.1997 13.2002C55.2376 12.9291 55.2755 12.6581 55.3145 12.3787C55.9339 9.10549 58.6 6.59688 61.2301 4.74515C64.124 2.9832 67.5232 1.62528 70.5934 3.78773ZM59.9071 12.1971C59.3333 12.9923 58.9161 13.8139 58.4997 14.7002C58.8226 14.8422 59.1455 14.9841 59.4782 15.1303C62.3902 16.4389 64.9239 17.9168 67.4997 19.8002C67.6977 19.8992 67.8957 19.9982 68.0997 20.1002C69.2533 16.9775 70.1686 14.0521 68.9997 10.8002C68.3712 9.68527 67.9645 9.11008 66.8997 8.40023C63.9197 7.9137 61.7212 10.1065 59.9071 12.1971ZM46.7997 13.8002C46.6017 13.9982 46.4037 14.1962 46.1997 14.4002C47.4867 14.4002 48.7737 14.4002 50.0997 14.4002C50.0997 14.3012 50.0997 14.2022 50.0997 14.1002C49.5627 14.0338 49.025 13.9722 48.4872 13.9127C48.1879 13.8779 47.8885 13.8431 47.5802 13.8073C47.3226 13.8049 47.065 13.8026 46.7997 13.8002ZM37.4997 14.1002C37.4997 14.1992 37.4997 14.2982 37.4997 14.4002C37.9947 14.4002 38.4897 14.4002 38.9997 14.4002C38.9997 14.3012 38.9997 14.2022 38.9997 14.1002C38.5047 14.1002 38.0097 14.1002 37.4997 14.1002ZM36.2997 14.1002C36.1017 14.2982 35.9037 14.4962 35.6997 14.7002C35.9967 14.7002 36.2937 14.7002 36.5997 14.7002C36.5007 14.5022 36.4017 14.3042 36.2997 14.1002ZM16.4997 17.7002C15.4099 19.5487 15.0936 21.2921 15.2997 23.4002C15.3279 23.7409 15.3561 24.0816 15.3852 24.4327C15.6688 27.1171 16.312 29.3384 17.3997 31.8002C17.8452 31.6517 17.8452 31.6517 18.2997 31.5002C18.2007 30.9062 18.1017 30.3122 17.9997 29.7002C18.1358 29.8487 18.2719 29.9972 18.4122 30.1502C18.8626 30.6681 18.8626 30.6681 19.4997 30.6002C19.4997 29.7092 19.4997 28.8182 19.4997 27.9002C19.6977 27.9002 19.8957 27.9002 20.0997 27.9002C20.2977 28.2962 20.4957 28.6922 20.6997 29.1002C21.1747 28.7256 21.1747 28.7256 21.5997 28.2002C21.5997 27.8042 21.5997 27.4082 21.5997 27.0002C21.8348 26.9755 22.0699 26.9507 22.3122 26.9252C23.128 26.7824 23.128 26.7824 23.4747 26.1565C23.6856 25.5412 23.8634 24.9362 23.9997 24.3002C24.1977 24.5972 24.3957 24.8942 24.5997 25.2002C25.0379 24.406 25.1997 24.0319 25.1997 23.1002C25.3977 23.0012 25.5957 22.9022 25.7997 22.8002C25.7997 22.9982 25.7997 23.1962 25.7997 23.4002C26.0967 23.3012 26.3937 23.2022 26.6997 23.1002C25.8943 21.5883 25.0244 20.3672 23.8497 19.1252C23.7078 18.9705 23.5658 18.8159 23.4196 18.6565C22.1334 17.2741 21.1824 16.3114 19.2266 16.1475C18.0236 16.2487 17.2777 16.8041 16.4997 17.7002ZM40.7997 16.2002C41.2178 17.5306 41.8814 18.2624 42.8997 19.2002C42.7151 18.0006 42.1189 17.1592 41.3997 16.2002C41.2017 16.2002 41.0037 16.2002 40.7997 16.2002ZM53.0997 18.0002C52.7518 19.0438 52.8673 19.3029 53.2309 20.3065C53.3172 20.549 53.4034 20.7914 53.4923 21.0412C53.5607 21.2257 53.6292 21.4102 53.6997 21.6002C53.8977 21.4022 54.0957 21.2042 54.2997 21.0002C54.0027 20.0102 53.7057 19.0202 53.3997 18.0002C53.3007 18.0002 53.2017 18.0002 53.0997 18.0002ZM34.1997 18.6002C34.7731 19.661 35.2876 20.3372 36.2997 21.0002C35.9479 19.9991 35.6431 19.2679 34.7997 18.6002C34.6017 18.6002 34.4037 18.6002 34.1997 18.6002ZM47.3997 21.3002C47.6997 21.9002 47.6997 21.9002 47.6997 21.9002L47.3997 21.3002ZM53.9997 21.6002C54.2997 22.2002 54.2997 22.2002 54.2997 22.2002L53.9997 21.6002ZM47.6997 21.9002C47.8977 22.2962 48.0957 22.6922 48.2997 23.1002C48.2007 22.7042 48.1017 22.3082 47.9997 21.9002C47.9007 21.9002 47.8017 21.9002 47.6997 21.9002ZM40.7997 22.5002C41.4943 23.6166 42.0854 24.4839 43.1997 25.2002C42.7494 24.265 42.2924 23.3537 41.6997 22.5002C41.4027 22.5002 41.1057 22.5002 40.7997 22.5002ZM69.5997 25.5002C68.8705 26.2294 68.7709 26.5799 68.6997 27.6002C69.0409 28.4358 69.0409 28.4358 69.5997 29.1002C69.8967 29.1992 70.1937 29.2982 70.4997 29.4002C70.7967 29.2022 71.0937 29.0042 71.3997 28.8002C71.5235 27.6858 71.5427 26.9658 71.0059 25.969C70.5046 25.3983 70.5046 25.3983 69.5997 25.5002ZM55.7997 25.8002C55.7997 25.9982 55.7997 26.1962 55.7997 26.4002C56.6907 26.4002 57.5817 26.4002 58.4997 26.4002C58.4997 26.3012 58.4997 26.2022 58.4997 26.1002C57.6087 26.0012 56.7177 25.9022 55.7997 25.8002ZM47.9997 27.9002C49.068 28.2849 49.605 28.116 50.6247 27.6565C51.9413 27.0919 53.2026 26.7107 54.5997 26.4002C52.5111 25.6607 49.8303 26.8324 47.9997 27.9002ZM59.0997 26.4002C59.4957 26.4992 59.8917 26.5982 60.2997 26.7002C60.2997 26.8982 60.2997 27.0962 60.2997 27.3002C60.7075 27.3988 60.7075 27.3988 61.1235 27.4995C65.4353 28.6219 68.7917 30.8867 71.0997 34.8002C71.3967 34.7012 71.6937 34.6022 71.9997 34.5002C71.104 31.6969 68.0983 29.489 65.6493 28.0315C63.5634 26.9727 61.4575 26.1859 59.0997 26.4002ZM36.8997 27.0002C37.3047 28.3259 37.878 28.9033 38.9997 29.7002C39.1977 29.6012 39.3957 29.5022 39.5997 29.4002C39.2643 28.9985 38.9263 28.5989 38.5872 28.2002C38.3992 27.9775 38.2113 27.7547 38.0177 27.5252C37.8467 27.352 37.6758 27.1787 37.4997 27.0002C37.3017 27.0002 37.1037 27.0002 36.8997 27.0002ZM54.2997 27.0002C54.2997 27.0992 54.2997 27.1982 54.2997 27.3002C54.9927 27.3002 55.6857 27.3002 56.3997 27.3002C56.3997 27.2012 56.3997 27.1022 56.3997 27.0002C55.7067 27.0002 55.0137 27.0002 54.2997 27.0002ZM56.9997 27.0002C56.9997 27.0992 56.9997 27.1982 56.9997 27.3002C57.9897 27.3002 58.9797 27.3002 59.9997 27.3002C59.9997 27.2012 59.9997 27.1022 59.9997 27.0002C59.0097 27.0002 58.0197 27.0002 56.9997 27.0002ZM53.0997 27.3002C54.2997 27.6002 54.2997 27.6002 54.2997 27.6002L53.0997 27.3002ZM51.8997 27.6002C53.0997 27.9002 53.0997 27.9002 53.0997 27.9002L51.8997 27.6002ZM29.9997 29.1002C30.7244 30.0578 31.4037 30.8244 32.3997 31.5002C32.5977 31.4012 32.7957 31.3022 32.9997 31.2002C32.6138 30.8485 32.2259 30.4989 31.8372 30.1502C31.6214 29.9553 31.4056 29.7604 31.1833 29.5596C30.6449 29.0384 30.6449 29.0384 29.9997 29.1002ZM46.4997 28.8002C46.2027 28.9982 45.9057 29.1962 45.5997 29.4002C45.5997 29.5982 45.5997 29.7962 45.5997 30.0002C45.4202 30.025 45.2408 30.0497 45.0559 30.0752C44.2006 30.3685 44.0264 30.7709 43.4997 31.5002C43.2027 31.7415 42.9057 31.9829 42.5997 32.2315C41.7489 32.9582 41.2744 33.4981 40.7997 34.5002C40.7997 34.7972 40.7997 35.0942 40.7997 35.4002C40.9977 35.4002 41.1957 35.4002 41.3997 35.4002C41.3997 35.5982 41.3997 35.7962 41.3997 36.0002C41.1027 36.0992 40.8057 36.1982 40.4997 36.3002C40.4007 36.4982 40.3017 36.6962 40.1997 36.9002C39.9027 36.9992 39.6057 37.0982 39.2997 37.2002C38.993 37.7177 38.993 37.7177 38.7934 38.344C38.718 38.5501 38.6426 38.7562 38.5649 38.9686C38.3491 39.6849 38.3491 39.6849 38.3997 40.8002C38.6967 40.8992 38.9937 40.9982 39.2997 41.1002C39.2997 40.8032 39.2997 40.5062 39.2997 40.2002C39.4977 40.2002 39.6957 40.2002 39.8997 40.2002C39.9619 40.022 40.0242 39.8437 40.0884 39.66C41.4054 36.1167 43.3479 33.0216 46.4997 30.9002C46.3017 30.5042 46.1037 30.1082 45.8997 29.7002C46.1967 29.7002 46.4937 29.7002 46.7997 29.7002C46.7007 29.4032 46.6017 29.1062 46.4997 28.8002ZM47.6997 29.4002C47.6007 29.5982 47.5017 29.7962 47.3997 30.0002C47.6967 29.9012 47.9937 29.8022 48.2997 29.7002C48.1017 29.6012 47.9037 29.5022 47.6997 29.4002ZM78.6559 34.069C78.236 34.4841 78.236 34.4841 78.2997 35.1002C78.0305 35.1188 78.0305 35.1188 77.7559 35.1377C77.0255 35.3622 77.0255 35.3622 76.5559 36.1502C76.0949 37.5091 76.1045 38.5246 76.4997 39.9002C77.5082 41.5706 78.8212 42.3806 80.6997 42.9002C81.9494 42.9002 82.5743 42.7436 83.6247 42.0752C84.3238 41.3761 84.7501 40.779 85.1997 39.9002C85.3667 39.5785 85.5338 39.2567 85.7059 38.9252C86.167 37.6079 86.2461 36.4825 86.0997 35.1002C85.9512 34.8032 85.9512 34.8032 85.7997 34.5002C85.6017 34.5002 85.4037 34.5002 85.1997 34.5002C85.2987 34.2032 85.3977 33.9062 85.4997 33.6002C85.1037 33.6992 84.7077 33.7982 84.2997 33.9002C84.1017 33.6032 83.9037 33.3062 83.6997 33.0002C81.6365 32.3125 80.261 32.6853 78.6559 34.069ZM50.6997 36.3002C50.7825 36.8825 50.7825 36.8825 50.9997 37.5002C52.4243 38.45 53.863 38.0963 55.4997 37.8002C56.7155 37.3407 57.4672 36.7989 58.1997 35.7002C58.2498 34.9126 58.2498 34.9126 58.1997 34.2002C55.6387 32.9198 52.554 34.541 50.6997 36.3002ZM72.2997 34.8002C72.1017 34.8992 71.9037 34.9982 71.6997 35.1002C71.9497 36.2369 72.3575 37.3059 72.7497 38.4002C74.4319 43.3539 73.9171 48.5774 71.6165 53.2842C69.198 57.5918 65.5881 60.5732 60.8997 62.1002C55.5149 63.4429 50.9218 62.5214 46.1997 59.7002C43.9307 58.0341 42.0642 55.9293 40.7997 53.4002C40.5027 53.4002 40.2057 53.4002 39.8997 53.4002C39.9581 53.1856 40.0165 52.971 40.0766 52.7498C40.2165 51.7838 40.075 51.2262 39.7684 50.3065C39.6822 50.0416 39.596 49.7767 39.5071 49.5037C39.4387 49.3046 39.3702 49.1054 39.2997 48.9002C39.1697 49.0425 39.0398 49.1849 38.9059 49.3315C38.3997 49.8002 38.3997 49.8002 37.4997 50.1002C37.3818 52.0994 37.7684 53.6125 38.4559 55.4815C38.5435 55.7342 38.6311 55.9869 38.7214 56.2473C39.5989 58.6988 40.5407 60.9693 42.6559 62.5877C42.944 62.8093 43.2321 63.0309 43.529 63.2592C43.8163 63.4708 44.1036 63.6823 44.3997 63.9002C44.6592 64.0963 44.9187 64.2924 45.186 64.4944C45.9095 65.0238 46.6428 65.5199 47.3997 66.0002C47.5934 66.124 47.7872 66.2477 47.9868 66.3752C49.798 67.3469 51.7625 67.4409 53.7781 67.5955C55.0608 67.6967 56.1254 67.8227 57.2997 68.4002C57.4977 67.5092 57.6957 66.6182 57.8997 65.7002C58.2044 65.6527 58.5091 65.6051 58.8231 65.5561C64.8149 64.5657 68.6393 62.1723 72.2997 57.3002C75.1598 53.2949 76.5258 48.4066 75.7614 43.5155C75.3439 41.7154 74.7339 39.9833 74.0997 38.2502C73.9877 37.9429 73.9877 37.9429 73.8734 37.6294C73.4684 36.5639 73.0437 35.6683 72.2997 34.8002ZM29.0434 35.719C28.3081 36.505 28.2423 37.0336 28.1997 38.1002C28.3153 38.9525 28.3153 38.9525 28.7997 39.6002C29.7155 39.8697 29.7155 39.8697 30.5997 39.9002C31.0979 39.3949 31.0979 39.3949 31.4997 38.7002C31.4799 37.9146 31.4799 37.9146 31.2559 37.1252C31.1921 36.8576 31.1283 36.59 31.0626 36.3143C30.9819 36.0103 30.9819 36.0103 30.8997 35.7002C29.9599 35.3942 29.9599 35.3942 29.0434 35.719ZM38.0997 41.1002C38.3997 41.7002 38.3997 41.7002 38.3997 41.7002L38.0997 41.1002ZM38.6997 41.4002C38.9997 42.3002 38.9997 42.3002 38.9997 42.3002L38.6997 41.4002ZM61.7997 42.844C61.3937 43.059 60.9875 43.2735 60.5809 43.4873C60.3856 43.5908 60.1903 43.6943 59.9891 43.801C59.1104 44.2471 58.2104 44.6243 57.2997 45.0002C57.2997 45.2972 57.2997 45.5942 57.2997 45.9002C56.9783 45.7483 56.9783 45.7483 56.6505 45.5932C55.7136 45.2706 55.1616 45.2871 54.1872 45.4127C52.9089 45.5598 51.6851 45.6288 50.3997 45.6002C50.3997 45.7982 50.3997 45.9962 50.3997 46.2002C50.2017 46.2002 50.0037 46.2002 49.7997 46.2002C49.7007 45.9032 49.6017 45.6062 49.4997 45.3002C49.2027 45.3992 48.9057 45.4982 48.5997 45.6002C48.6987 45.6992 48.7977 45.7982 48.8997 45.9002C48.8007 46.0982 48.7017 46.2962 48.5997 46.5002C48.1047 46.1042 47.6097 45.7082 47.0997 45.3002C46.2273 45.966 45.6137 46.4791 44.9997 47.4002C44.9275 48.0174 44.9275 48.0174 44.9622 48.6565C44.9746 49.0339 44.9869 49.4114 44.9997 49.8002C45.2967 49.8002 45.5937 49.8002 45.8997 49.8002C45.9987 50.2952 46.0977 50.7902 46.1997 51.3002C46.4967 51.3992 46.7937 51.4982 47.0997 51.6002C47.1987 51.7982 47.2977 51.9962 47.3997 52.2002C48.469 52.6115 49.5697 52.522 50.6997 52.5002C50.6007 52.9952 50.5017 53.4902 50.3997 54.0002C50.5977 54.0002 50.7957 54.0002 50.9997 54.0002C50.8995 54.165 50.7994 54.3297 50.6962 54.4995C50.0204 56.0967 50.5148 58.0339 51.1309 59.5877C51.534 60.3301 51.534 60.3301 52.1997 60.6002C53.3017 60.6403 54.1492 60.6504 55.1997 60.3002C55.2987 59.7062 55.3977 59.1122 55.4997 58.5002C55.6977 58.5002 55.8957 58.5002 56.0997 58.5002C56.0997 58.1042 56.0997 57.7082 56.0997 57.3002C55.9017 57.3002 55.7037 57.3002 55.4997 57.3002C55.4997 56.9042 55.4997 56.5082 55.4997 56.1002C55.6977 56.1002 55.8957 56.1002 56.0997 56.1002C56.0997 55.3082 56.0997 54.5162 56.0997 53.7002C55.9017 53.7002 55.7037 53.7002 55.4997 53.7002C55.5987 53.3042 55.6977 52.9082 55.7997 52.5002C56.133 52.431 56.4664 52.3618 56.8098 52.2905C61.1319 51.359 63.996 50.3087 66.5809 46.5565C66.9652 45.8869 66.9652 45.8869 66.8997 45.0002C66.6027 44.8517 66.6027 44.8517 66.2997 44.7002C66.5967 44.5022 66.8937 44.3042 67.1997 44.1002C67.0355 43.0878 66.8832 42.5755 66.2997 41.7002C64.4924 41.454 63.3344 42.0046 61.7997 42.844ZM38.0997 43.2002C38.3967 43.6457 38.3967 43.6457 38.6997 44.1002C38.6997 43.8032 38.6997 43.5062 38.6997 43.2002C38.5017 43.2002 38.3037 43.2002 38.0997 43.2002ZM37.7997 44.4002C37.7754 44.8875 37.7579 45.3751 37.7434 45.8627C37.733 46.1342 37.7225 46.4057 37.7118 46.6854C37.7408 46.9213 37.7698 47.1572 37.7997 47.4002C38.2452 47.6972 38.2452 47.6972 38.6997 48.0002C38.6997 46.9112 38.6997 45.8222 38.6997 44.7002C38.4027 44.6012 38.1057 44.5022 37.7997 44.4002ZM22.4247 47.419C20.9795 49.2766 20.6081 51.4074 20.3997 53.7002C20.5977 53.7002 20.7957 53.7002 20.9997 53.7002C21.0182 53.8673 21.0368 54.0344 21.0559 54.2065C21.5123 55.5054 22.5851 56.2572 23.6997 57.0002C25.831 57.222 27.8546 57.2534 29.6997 56.1002C31.0787 54.8136 31.7259 53.5383 31.9122 51.6752C31.8617 50.0076 31.2736 48.4588 30.1614 47.2069C27.9966 45.3003 24.458 45.2501 22.4247 47.419ZM38.6997 48.0002C38.9997 48.6002 38.9997 48.6002 38.9997 48.6002L38.6997 48.0002ZM39.8997 61.5002C39.6027 61.9457 39.6027 61.9457 39.2997 62.4002C39.3987 62.6972 39.4977 62.9942 39.5997 63.3002C39.8967 62.7062 40.1937 62.1122 40.4997 61.5002C40.3017 61.5002 40.1037 61.5002 39.8997 61.5002ZM32.3997 62.7002C32.1027 63.2942 31.8057 63.8882 31.4997 64.5002C31.6977 64.5002 31.8957 64.5002 32.0997 64.5002C32.3967 63.9062 32.6937 63.3122 32.9997 62.7002C32.8017 62.7002 32.6037 62.7002 32.3997 62.7002ZM38.9997 63.3002C39.2997 63.9002 39.2997 63.9002 39.2997 63.9002L38.9997 63.3002ZM66.5997 66.9002C66.5997 67.5932 66.5997 68.2862 66.5997 69.0002C67.3075 68.2924 67.3471 67.8665 67.4997 66.9002C67.2027 66.9002 66.9057 66.9002 66.5997 66.9002ZM43.1997 68.4002C42.9229 68.7713 42.6631 69.155 42.4122 69.544C42.2722 69.7563 42.1322 69.9686 41.988 70.1873C41.5967 70.8362 41.5967 70.8362 41.9997 71.7002C42.8878 70.691 43.1766 69.6928 43.4997 68.4002C43.4007 68.4002 43.3017 68.4002 43.1997 68.4002ZM49.7997 69.3002C49.5906 69.7364 49.385 70.1742 49.1809 70.6127C49.0661 70.8564 48.9512 71.1 48.8329 71.351C48.7174 71.6724 48.7174 71.6724 48.5997 72.0002C48.6987 72.1982 48.7977 72.3962 48.8997 72.6002C49.1096 72.221 49.315 71.8392 49.5184 71.4565C49.6333 71.2442 49.7481 71.0319 49.8665 70.8131C50.1905 70.1561 50.1905 70.1561 49.7997 69.3002ZM61.1997 70.2002C60.8037 71.1902 60.4077 72.1802 59.9997 73.2002C60.1977 73.3982 60.3957 73.5962 60.5997 73.8002C60.7593 73.3702 60.9147 72.9386 61.0684 72.5065C61.1554 72.2663 61.2425 72.0262 61.3321 71.7788C61.5744 71.0572 61.5744 71.0572 61.1997 70.2002ZM33.5997 70.8002C33.1122 71.6502 33.1122 71.6502 32.6997 72.6002C32.7987 72.8972 32.8977 73.1942 32.9997 73.5002C33.4947 72.6092 33.9897 71.7182 34.4997 70.8002C34.2027 70.8002 33.9057 70.8002 33.5997 70.8002ZM54.2997 73.2002C53.9621 73.7501 53.9621 73.7501 53.6997 74.4002C53.7987 74.6972 53.8977 74.9942 53.9997 75.3002C54.3957 74.6072 54.7917 73.9142 55.1997 73.2002C54.9027 73.2002 54.6057 73.2002 54.2997 73.2002ZM25.4997 73.8002C25.0542 74.3942 25.0542 74.3942 24.5997 75.0002C24.6987 75.1982 24.7977 75.3962 24.8997 75.6002C25.1967 75.2042 25.4937 74.8082 25.7997 74.4002C25.7007 74.2022 25.6017 74.0042 25.4997 73.8002ZM53.3997 75.3002C53.6997 75.9002 53.6997 75.9002 53.6997 75.9002L53.3997 75.3002ZM24.2997 75.6002C24.5997 76.2002 24.5997 76.2002 24.5997 76.2002L24.2997 75.6002ZM40.1997 76.8002C40.1997 77.7002 40.1997 77.7002 40.1997 77.7002V76.8002ZM56.3997 77.4002C55.9122 78.2502 55.9122 78.2502 55.4997 79.2002C55.5987 79.4972 55.6977 79.7942 55.7997 80.1002C56.0967 79.2092 56.3937 78.3182 56.6997 77.4002C56.6007 77.4002 56.5017 77.4002 56.3997 77.4002ZM39.5997 77.7002C39.8997 78.3002 39.8997 78.3002 39.8997 78.3002L39.5997 77.7002ZM46.1997 77.7002C46.2987 77.8982 46.3977 78.0962 46.4997 78.3002C46.5987 78.1022 46.6977 77.9042 46.7997 77.7002C46.6017 77.7002 46.4037 77.7002 46.1997 77.7002ZM32.0997 78.0002C32.1987 78.1982 32.2977 78.3962 32.3997 78.6002C32.4987 78.4022 32.5977 78.2042 32.6997 78.0002C32.5017 78.0002 32.3037 78.0002 32.0997 78.0002ZM39.2997 78.3002C39.2997 79.2002 39.2997 79.2002 39.2997 79.2002V78.3002ZM45.8997 78.3002C45.8997 79.2002 45.8997 79.2002 45.8997 79.2002V78.3002ZM31.7997 78.6002C31.5027 79.1942 31.2057 79.7882 30.8997 80.4002C31.0977 80.4002 31.2957 80.4002 31.4997 80.4002C31.6977 79.8062 31.8957 79.2122 32.0997 78.6002C32.0007 78.6002 31.9017 78.6002 31.7997 78.6002ZM45.2997 79.2002C45.5997 79.8002 45.5997 79.8002 45.5997 79.8002L45.2997 79.2002Z" fill="#F0F0F0"/>
<path d="M65.3996 62.1001C65.7956 62.1001 66.1916 62.1001 66.5996 62.1001C66.5006 62.3971 66.4016 62.6941 66.2996 63.0001C65.9036 62.8021 65.5076 62.6041 65.0996 62.4001C65.1986 62.3011 65.2976 62.2021 65.3996 62.1001Z" fill="#F0F0F0"/>
<path d="M45.0004 30.6001C45.1984 30.6001 45.3964 30.6001 45.6004 30.6001C45.6004 30.7981 45.6004 30.9961 45.6004 31.2001C45.2044 31.2991 44.8084 31.3981 44.4004 31.5001C44.5984 31.2031 44.7964 30.9061 45.0004 30.6001Z" fill="#F0F0F0"/>
<path d="M74.0996 44.3999C74.2976 44.3999 74.4956 44.3999 74.6996 44.3999C74.6996 44.6969 74.6996 44.9939 74.6996 45.2999C74.5016 45.2999 74.3036 45.2999 74.0996 45.2999C74.0996 45.0029 74.0996 44.7059 74.0996 44.3999Z" fill="#EFEFEF"/>
<path d="M74.0996 45.6001C74.2976 45.6001 74.4956 45.6001 74.6996 45.6001C74.6006 45.8971 74.5016 46.1941 74.3996 46.5001C74.3006 46.2031 74.2016 45.9061 74.0996 45.6001Z" fill="#F0F0F0"/>
<path d="M45.5996 48C45.7976 48 45.9956 48 46.1996 48C46.1996 48.198 46.1996 48.396 46.1996 48.6C46.0016 48.6 45.8036 48.6 45.5996 48.6C45.5996 48.402 45.5996 48.204 45.5996 48Z" fill="#EFEFEF"/>
</svg>
